HIERARCHY
ROOT hip
{
  OFFSET 5.51535 103.731 -2.80141
  CHANNELS 6 Xposition Yposition Zposition Zrotation Xrotation Yrotation
  JOINT abdomen
  {
    OFFSET 0 -1.186 -1.5018
    CHANNELS 6 Xposition Yposition Zposition Zrotation Xrotation Yrotation
    JOINT abdomen2
    {
      OFFSET 0 9.964 0.2134
      CHANNELS 6 Xposition Yposition Zposition Zrotation Xrotation Yrotation
      JOINT chest
      {
        OFFSET 0 13.134 -3.2573
        CHANNELS 6 Xposition Yposition Zposition Zrotation Xrotation Yrotation
        JOINT neck
        {
          OFFSET 0 20.686 -1.6905
          CHANNELS 6 Xposition Yposition Zposition Zrotation Xrotation Yrotation
          JOINT head
          {
            OFFSET 0 7.23801 -0.1237
            CHANNELS 6 Xposition Yposition Zposition Zrotation Xrotation Yrotation
            End Site
            {
              OFFSET 0 0 0
            }
          }
        }
        JOINT lCollar
        {
          OFFSET 1.7069 20.075 5.0056
          CHANNELS 6 Xposition Yposition Zposition Zrotation Xrotation Yrotation
          JOINT lShldr
          {
            OFFSET 13.6458 -0.0470195 -4.849
            CHANNELS 6 Xposition Yposition Zposition Zrotation Xrotation Yrotation
            JOINT lForeArm
            {
              OFFSET 28.3255 -0.97589 2.2888
              CHANNELS 6 Xposition Yposition Zposition Zrotation Xrotation Yrotation
              JOINT lHand
              {
                OFFSET 22.1583 -0.529998 10.8316
                CHANNELS 6 Xposition Yposition Zposition Zrotation Xrotation Yrotation
                JOINT lThumb1
                {
                  OFFSET 0.786 0.111997 2.5817
                  CHANNELS 6 Xposition Yposition Zposition Zrotation Xrotation Yrotation
                  JOINT lThumb2
                  {
                    OFFSET 0.360097 -0.877999 4.2331
                    CHANNELS 6 Xposition Yposition Zposition Zrotation Xrotation Yrotation
                    JOINT lThumb2_End
                    {
                      OFFSET 1.8127 -1.21601 2.2227
                      CHANNELS 6 Xposition Yposition Zposition Zrotation Xrotation Yrotation
                      End Site
                      {
                        OFFSET 0.0180981 -0.012195 0.0222007
                      }
                    }
                  }
                }
                JOINT lCarpal1
                {
                  OFFSET 0.9571 1.114 1.7695
                  CHANNELS 6 Xposition Yposition Zposition Zrotation Xrotation Yrotation
                  JOINT lIndex1
                  {
                    OFFSET 4.12461 0.486992 4.1451
                    CHANNELS 6 Xposition Yposition Zposition Zrotation Xrotation Yrotation
                    JOINT lIndex2
                    {
                      OFFSET 3.4052 -1.45401 2.7682
                      CHANNELS 6 Xposition Yposition Zposition Zrotation Xrotation Yrotation
                      JOINT lIndex2_End
                      {
                        OFFSET 1.45309 -1.79499 1.2713
                        CHANNELS 6 Xposition Yposition Zposition Zrotation Xrotation Yrotation
                        End Site
                        {
                          OFFSET 0.0144979 -0.0179083 0.0126995
                        }
                      }
                    }
                  }
                  JOINT lMid1
                  {
                    OFFSET 5.6954 0.209987 2.1184
                    CHANNELS 6 Xposition Yposition Zposition Zrotation Xrotation Yrotation
                    JOINT lMid2
                    {
                      OFFSET 3.9766 -1.53999 2.3863
                      CHANNELS 6 Xposition Yposition Zposition Zrotation Xrotation Yrotation
                      JOINT lMid2_End
                      {
                        OFFSET 1.4042 -1.926 1.125
                        CHANNELS 6 Xposition Yposition Zposition Zrotation Xrotation Yrotation
                        End Site
                        {
                          OFFSET 0.013999 -0.0193044 0.011301
                        }
                      }
                    }
                  }
                }
                JOINT lCarpal2
                {
                  OFFSET 2.0956 0.66 -0.3894
                  CHANNELS 6 Xposition Yposition Zposition Zrotation Xrotation Yrotation
                  JOINT lRing1
                  {
                    OFFSET 5.0395 -0.090013 2.4971
                    CHANNELS 6 Xposition Yposition Zposition Zrotation Xrotation Yrotation
                    JOINT lRing2
                    {
                      OFFSET 3.7921 -1.55199 1.4806
                      CHANNELS 6 Xposition Yposition Zposition Zrotation Xrotation Yrotation
                      JOINT lRing2_End
                      {
                        OFFSET 1.4655 -1.808 0.9609
                        CHANNELS 6 Xposition Yposition Zposition Zrotation Xrotation Yrotation
                        End Site
                        {
                          OFFSET 0.0147015 -0.0181014 0.00959957
                        }
                      }
                    }
                  }
                  JOINT lPinky1
                  {
                    OFFSET 4.9141 -1.269 0.3591
                    CHANNELS 6 Xposition Yposition Zposition Zrotation Xrotation Yrotation
                    JOINT lPinky2
                    {
                      OFFSET 3.1477 -1.685 0.8462
                      CHANNELS 6 Xposition Yposition Zposition Zrotation Xrotation Yrotation
                      JOINT lPinky2_End
                      {
                        OFFSET 0.805498 -1.58501 0.795499
                        CHANNELS 6 Xposition Yposition Zposition Zrotation Xrotation Yrotation
                        End Site
                        {
                          OFFSET 0.00809703 -0.0157944 0.00799848
                        }
                      }
                    }
                  }
                }
              }
            }
          }
        }
        JOINT rCollar
        {
          OFFSET -1.7069 20.075 5.0056
          CHANNELS 6 Xposition Yposition Zposition Zrotation Xrotation Yrotation
          JOINT rShldr
          {
            OFFSET -13.6458 -0.0470107 -4.849
            CHANNELS 6 Xposition Yposition Zposition Zrotation Xrotation Yrotation
            JOINT rForeArm
            {
              OFFSET -28.3255 -0.975895 2.2888
              CHANNELS 6 Xposition Yposition Zposition Zrotation Xrotation Yrotation
              JOINT rHand
              {
                OFFSET -22.1583 -0.530007 10.8316
                CHANNELS 6 Xposition Yposition Zposition Zrotation Xrotation Yrotation
                JOINT rThumb1
                {
                  OFFSET -0.785997 0.112005 2.5817
                  CHANNELS 6 Xposition Yposition Zposition Zrotation Xrotation Yrotation
                  JOINT rThumb2
                  {
                    OFFSET -0.360106 -0.877994 4.2331
                    CHANNELS 6 Xposition Yposition Zposition Zrotation Xrotation Yrotation
                    JOINT rThumb2_End
                    {
                      OFFSET -1.8127 -1.216 2.2227
                      CHANNELS 6 Xposition Yposition Zposition Zrotation Xrotation Yrotation
                      End Site
                      {
                        OFFSET -0.0180972 -0.0121973 0.0222005
                      }
                    }
                  }
                }
                JOINT rCarpal1
                {
                  OFFSET -0.9571 1.114 1.7695
                  CHANNELS 6 Xposition Yposition Zposition Zrotation Xrotation Yrotation
                  JOINT rIndex1
                  {
                    OFFSET -4.1246 0.487011 4.1451
                    CHANNELS 6 Xposition Yposition Zposition Zrotation Xrotation Yrotation
                    JOINT rIndex2
                    {
                      OFFSET -3.4052 -1.45401 2.7682
                      CHANNELS 6 Xposition Yposition Zposition Zrotation Xrotation Yrotation
                      JOINT rIndex2_End
                      {
                        OFFSET -1.4531 -1.795 1.2713
                        CHANNELS 6 Xposition Yposition Zposition Zrotation Xrotation Yrotation
                        End Site
                        {
                          OFFSET -0.0145077 -0.0180048 0.0127017
                        }
                      }
                    }
                  }
                  JOINT rMid1
                  {
                    OFFSET -5.6954 0.210002 2.1184
                    CHANNELS 6 Xposition Yposition Zposition Zrotation Xrotation Yrotation
                    JOINT rMid2
                    {
                      OFFSET -3.9766 -1.54 2.3863
                      CHANNELS 6 Xposition Yposition Zposition Zrotation Xrotation Yrotation
                      JOINT rMid2_End
                      {
                        OFFSET -1.4042 -1.926 1.125
                        CHANNELS 6 Xposition Yposition Zposition Zrotation Xrotation Yrotation
                        End Site
                        {
                          OFFSET -0.0139948 -0.0192916 0.0112994
                        }
                      }
                    }
                  }
                }
                JOINT rCarpal2
                {
                  OFFSET -2.0956 0.66 -0.3894
                  CHANNELS 6 Xposition Yposition Zposition Zrotation Xrotation Yrotation
                  JOINT rRing1
                  {
                    OFFSET -5.03951 -0.0899879 2.4971
                    CHANNELS 6 Xposition Yposition Zposition Zrotation Xrotation Yrotation
                    JOINT rRing2
                    {
                      OFFSET -3.7921 -1.55201 1.4806
                      CHANNELS 6 Xposition Yposition Zposition Zrotation Xrotation Yrotation
                      JOINT rRing2_End
                      {
                        OFFSET -1.4655 -1.808 0.960901
                        CHANNELS 6 Xposition Yposition Zposition Zrotation Xrotation Yrotation
                        End Site
                        {
                          OFFSET -0.0146934 -0.0180999 0.00959832
                        }
                      }
                    }
                  }
                  JOINT rPinky1
                  {
                    OFFSET -4.91411 -1.26899 0.359202
                    CHANNELS 6 Xposition Yposition Zposition Zrotation Xrotation Yrotation
                    JOINT rPinky2
                    {
                      OFFSET -3.14769 -1.68501 0.846199
                      CHANNELS 6 Xposition Yposition Zposition Zrotation Xrotation Yrotation
                      JOINT rPinky2_End
                      {
                        OFFSET -0.805498 -1.585 0.7955
                        CHANNELS 6 Xposition Yposition Zposition Zrotation Xrotation Yrotation
                        End Site
                        {
                          OFFSET -0.00810035 -0.0158035 0.00800029
                        }
                      }
                    }
                  }
                }
              }
            }
          }
        }
      }
    }
  }
  JOINT lThigh
  {
    OFFSET 8.367 -8.2066 0.5982
    CHANNELS 6 Xposition Yposition Zposition Zrotation Xrotation Yrotation
    JOINT lShin
    {
      OFFSET 2.1923 -43.463 -0.4932
      CHANNELS 6 Xposition Yposition Zposition Zrotation Xrotation Yrotation
      JOINT lFoot
      {
        OFFSET 0.733301 -45.8593 -2.6451
        CHANNELS 6 Xposition Yposition Zposition Zrotation Xrotation Yrotation
        End Site
        {
          OFFSET 2.6618 -4.2699 12.3931
        }
      }
    }
  }
  JOINT rThigh
  {
    OFFSET -8.367 -8.2066 0.5982
    CHANNELS 6 Xposition Yposition Zposition Zrotation Xrotation Yrotation
    JOINT rShin
    {
      OFFSET -2.1923 -43.463 -0.4931
      CHANNELS 6 Xposition Yposition Zposition Zrotation Xrotation Yrotation
      JOINT rFoot
      {
        OFFSET -0.733299 -45.8593 -2.6451
        CHANNELS 6 Xposition Yposition Zposition Zrotation Xrotation Yrotation
        End Site
        {
          OFFSET -2.6618 -4.2699 12.3931
        }
      }
    }
  }
}
MOTION
Frames:	4
Frame Time:	0.0333333
-28.4835 60.491 -47.7634 1.90848 2.29312 -5.39606 8.86149e-007 -1.186 -1.5018 -3.96449 -0.731488 0.877584 -5.25419e-007 9.964 0.213402 -7.91838 -1.52182 1.70268 3.20067e-007 13.134 -3.2573 -7.91839 -1.52182 1.70268 -1.90065e-006 20.686 -1.6905 -2.44783 -17.9289 52.5042 -7.23316e-007 7.23802 -0.123705 -2.26614 28.9672 16.5975 1.7069 20.075 5.0056 9.89514 0.308111 -2.60901 13.6458 -0.0470146 -4.849 -89.9535 8.01922 -9.70815 28.3255 -0.975903 2.28881 -9.27999 -0.578317 -26.984 22.1583 -0.529989 10.8316 166.149 -69.4112 -152.133 0.786003 0.111995 2.5817 11.7086 22.9065 -18.5356 0.360096 -0.878001 4.2331 -5.94723 -0.147257 -10.8616 1.8127 -1.21601 2.2227 0.555252 0.0717984 1.01896 0.9571 1.114 1.7695 -3.18055e-015 4.77083e-015 2.38542e-015 4.1246 0.486991 4.1451 -6.19036 3.77232 8.99084 3.4052 -1.454 2.7682 -24.3381 8.09794 11.4822 1.4531 -1.79499 1.2713 -35.4485 9.93431 17.4016 5.6954 0.209986 2.1184 -9.21643 3.34309 4.56738 3.9766 -1.54 2.3863 -32.5267 10.8727 16.3165 1.4042 -1.926 1.125 -11.8692 5.18404 5.38515 2.0956 0.66 -0.3894 -3.18055e-015 4.77083e-015 2.38542e-015 5.0395 -0.0900136 2.4971 -13.6641 2.40215 4.29059 3.7921 -1.55199 1.4806 -14.1535 6.44012 7.35084 1.4655 -1.808 0.9609 -15.371 6.88907 8.03282 4.9141 -1.269 0.359102 -3.37329 -2.49708 3.98886 3.1477 -1.685 0.8462 -18.9353 8.77377 10.0228 0.805499 -1.58501 0.795499 -16.8135 7.99696 8.80375 -1.7069 20.075 5.0056 -32.654 -0.666411 24.8684 -13.6458 -0.047011 -4.849 8.44156 -50.9405 20.0901 -28.3255 -0.975879 2.2888 20.5301 -43.1794 37.0078 -22.1583 -0.53001 10.8316 49.7398 -75.1022 17.2416 -0.786002 0.112005 2.58171 -26.0911 42.1805 28.3644 -0.360101 -0.877996 4.2331 1.30403 -1.05497 3.8647 -1.81269 -1.21601 2.22269 -3.6342 3.89248 -12.1314 -0.9571 1.114 1.7695 3.18055e-015 -3.18055e-015 3.18055e-015 -4.1246 0.487012 4.1451 -5.59357 5.14406 -12.8351 -3.4052 -1.45401 2.7682 41.9134 10.4661 -10.0261 -1.4531 -1.795 1.2713 42.1255 10.4973 -10.0932 -5.6954 0.21 2.11841 2.86352 3.34295 -6.11274 -3.9766 -1.54 2.3863 52.3089 13.53 -14.1045 -1.4042 -1.92599 1.125 29.4295 9.39203 -6.52608 -2.0956 0.66 -0.3894 3.18055e-015 -3.18055e-015 3.18055e-015 -5.03951 -0.0899868 2.4971 15.4897 -0.0302071 -5.48186 -3.7921 -1.55201 1.4806 29.1023 10.0045 -7.83321 -1.4655 -1.808 0.9609 30.5511 10.3734 -8.33426 -4.9141 -1.26899 0.359198 9.24327 -4.04439 -3.30081 -3.14769 -1.68501 0.846192 27.8958 10.5585 -7.28184 -0.8055 -1.585 0.795502 22.6445 8.9129 -5.56049 8.367 -8.20659 0.598199 41.1922 -6.9874 13.3888 2.19229 -43.463 -0.493201 -2.52757 84.0981 4.66023 0.733306 -45.8593 -2.64511 -10.8251 18.6997 -2.53775 -8.36701 -8.20659 0.598201 -21.4687 2.99453 -30.745 -2.1923 -43.463 -0.493097 118.102 71.857 -112.957 -0.733297 -45.8593 -2.64508 9.99795 8.77111 -6.78927 
-25.7397 59.7631 -47.8422 1.96573 2.45412 -9.71498 5.80068e-007 -1.186 -1.5018 -3.88002 -0.733064 0.965076 -4.40451e-007 9.96399 0.213399 -7.74818 -1.52965 1.87862 1.21744e-007 13.134 -3.2573 -7.74818 -1.52966 1.87862 6.57417e-007 20.686 -1.6905 -2.58068 -17.7567 52.4761 -1.31369e-006 7.23802 -0.123693 -2.36255 28.8767 16.5153 1.7069 20.075 5.0056 9.56853 0.280848 -2.81377 13.6458 -0.0470082 -4.849 -89.3348 7.75032 -9.89513 28.3255 -0.975882 2.2888 -8.61946 -0.162228 -27.0864 22.1583 -0.529994 10.8316 166.69 -68.2835 -150.874 0.786002 0.111997 2.5817 11.9253 23.1374 -18.711 0.360098 -0.878 4.2331 -5.95306 -0.146844 -10.8723 1.8127 -1.21601 2.2227 0.644716 0.0842734 1.18323 0.9571 1.114 1.7695 -2.20695e-032 1.59028e-015 7.95139e-016 4.1246 0.486992 4.1451 -6.16938 3.7838 9.05271 3.4052 -1.454 2.7682 -24.5266 8.13893 11.5803 1.4531 -1.79499 1.2713 -35.4827 9.93815 17.4202 5.6954 0.209986 2.1184 -9.12719 3.29788 4.53247 3.9766 -1.53999 2.3863 -32.6947 10.9014 16.4107 1.4042 -1.926 1.125 -11.8346 5.17094 5.36826 2.0956 0.66 -0.3894 -2.20695e-032 1.59028e-015 7.95139e-016 5.0395 -0.0900121 2.4971 -13.5976 2.35074 4.30678 3.7921 -1.55199 1.4806 -14.1551 6.44072 7.35175 1.4655 -1.808 0.960899 -15.3772 6.89133 8.03628 4.9141 -1.269 0.359102 -3.1979 -2.62045 3.96154 3.1477 -1.685 0.846199 -18.928 8.77117 10.0185 0.805499 -1.58501 0.795501 -16.717 7.96043 8.74868 -1.7069 20.075 5.0056 -33.2318 -0.671944 24.6951 -13.6458 -0.0470172 -4.849 7.46717 -51.3283 19.8336 -28.3255 -0.975893 2.28879 20.6333 -43.119 37.0106 -22.1583 -0.530013 10.8316 38.2931 -75.6012 6.22211 -0.786003 0.112005 2.58171 -26.1712 42.0511 28.505 -0.360102 -0.877997 4.2331 1.33352 -1.0772 3.95005 -1.8127 -1.216 2.2227 -3.64689 3.90932 -12.1789 -0.9571 1.114 1.7695 -3.18055e-015 -1.59028e-015 -3.18055e-015 -4.12461 0.487011 4.14511 -5.30753 5.16761 -12.8107 -3.4052 -1.45401 2.76821 41.951 10.4716 -10.0379 -1.4531 -1.795 1.27129 42.1771 10.5048 -10.1094 -5.69541 0.210001 2.11841 2.92628 3.31039 -6.05193 -3.9766 -1.54 2.3863 52.3089 13.5301 -14.1045 -1.4042 -1.926 1.125 29.2063 9.33653 -6.46054 -2.0956 0.66 -0.3894 -3.18055e-015 -1.59028e-015 -3.18055e-015 -5.03951 -0.0899876 2.4971 15.4742 -0.0349617 -5.4792 -3.7921 -1.55201 1.4806 28.9753 9.97162 -7.78962 -1.4655 -1.80801 0.960895 30.4266 10.3423 -8.29082 -4.91411 -1.26899 0.359208 9.00359 -4.11153 -3.33211 -3.14769 -1.68501 0.846196 27.855 10.5464 -7.26796 -0.8055 -1.585 0.795496 22.5242 8.87308 -5.52267 8.367 -8.20659 0.598199 40.9 -6.82696 12.7346 2.19231 -43.463 -0.493198 -2.53628 84.4998 4.76917 0.733297 -45.8593 -2.64509 -9.51966 18.955 -3.42228 -8.367 -8.20659 0.598198 -21.8066 2.58628 -31.3697 -2.1923 -43.4631 -0.493114 121.93 71.053 -116.744 -0.733299 -45.8593 -2.64512 10.6955 9.24185 -5.97919 
-23.1198 59.0653 -47.7156 2.02593 2.55715 -14.0944 2.90382e-007 -1.186 -1.5018 -3.82674 -0.735692 1.07272 -6.08569e-007 9.964 0.213402 -7.64007 -1.54122 2.09422 -3.67704e-007 13.134 -3.2573 -7.64007 -1.54122 2.09422 -1.10518e-005 20.6862 -1.69051 -2.7197 -17.6814 52.2856 -1.59946e-006 7.23805 -0.123695 -2.2844 28.5546 16.5229 1.7069 20.075 5.0056 9.30673 0.244945 -3.09272 13.6458 -0.0470091 -4.84901 -88.6291 7.3215 -9.73803 28.3255 -0.975897 2.2888 -8.12072 0.359774 -27.6459 22.1583 -0.529996 10.8316 167.029 -67.1091 -150.048 0.786004 0.111998 2.5817 12.1431 23.3676 -18.8876 0.360097 -0.877999 4.2331 -5.95887 -0.146429 -10.8829 1.8127 -1.21601 2.2227 0.734144 0.0970251 1.3475 0.9571 1.114 1.7695 5.29669e-031 6.36111e-015 -4.77083e-015 4.1246 0.486992 4.1451 -6.15174 3.79274 9.09941 3.4052 -1.45401 2.7682 -24.6973 8.17574 11.6692 1.4531 -1.79499 1.2713 -35.5169 9.94198 17.4388 5.6954 0.209986 2.1184 -9.02388 3.24793 4.48997 3.9766 -1.53999 2.3863 -32.8629 10.9298 16.505 1.4042 -1.926 1.125 -11.8 5.15783 5.35139 2.0956 0.66 -0.3894 5.29669e-031 6.36111e-015 -4.77083e-015 5.0395 -0.090012 2.4971 -13.5312 2.29934 4.32304 3.7921 -1.55199 1.4806 -14.1568 6.44133 7.35269 1.4655 -1.808 0.9609 -15.3834 6.89359 8.03974 4.9141 -1.269 0.359102 -3.02258 -2.7439 3.93461 3.1477 -1.685 0.8462 -18.9207 8.76859 10.0143 0.805498 -1.58501 0.795499 -16.6081 7.91904 8.68663 -1.7069 20.075 5.0056 -33.5526 -0.670721 24.4678 -13.6458 -0.0470051 -4.849 6.80966 -51.812 20.0327 -28.3255 -0.975894 2.28879 20.8823 -43.238 37.0595 -22.1583 -0.530012 10.8316 25.7613 -75.0726 -5.89422 -0.786002 0.112006 2.5817 -26.2507 41.9215 28.6451 -0.360108 -0.87799 4.23311 1.36306 -1.09938 4.03542 -1.8127 -1.216 2.2227 -3.65958 3.92618 -12.2265 -0.9571 1.114 1.7695 1.59028e-015 2.38542e-015 -0 -4.1246 0.487012 4.1451 -5.02148 5.19129 -12.7864 -3.4052 -1.45401 2.76819 41.9886 10.4771 -10.0498 -1.4531 -1.795 1.2713 42.2289 10.5122 -10.1257 -5.6954 0.210003 2.1184 2.9891 3.2779 -5.99106 -3.9766 -1.54 2.3863 52.309 13.5299 -14.1045 -1.4042 -1.926 1.125 28.9831 9.2808 -6.39523 -2.0956 0.66 -0.3894 1.59028e-015 2.38542e-015 -0 -5.03951 -0.0899865 2.4971 15.4588 -0.039676 -5.4765 -3.7921 -1.55201 1.4806 28.8484 9.93862 -7.74616 -1.4655 -1.808 0.960901 30.3022 10.3111 -8.24746 -4.91411 -1.26899 0.359201 8.76392 -4.17852 -3.3637 -3.1477 -1.68501 0.846196 27.8143 10.5343 -7.25411 -0.805499 -1.585 0.795494 22.4039 8.83322 -5.48495 8.367 -8.20661 0.598199 40.5427 -6.56014 12.3803 2.19231 -43.463 -0.493197 -2.7443 85.2191 5.02776 0.733301 -45.8593 -2.6451 -9.11741 18.8 -3.6826 -8.36701 -8.20661 0.598204 -22.0479 2.22398 -32.0526 -2.19229 -43.463 -0.493088 125.137 70.2466 -119.936 -0.7333 -45.8593 -2.6451 10.9954 9.27641 -5.9853 
-20.5904 58.4009 -47.4511 2.07124 2.69561 -18.6297 9.28688e-008 -1.186 -1.5018 -3.7632 -0.75033 1.18078 7.42162e-007 9.964 0.213401 -7.51123 -1.57638 2.31001 1.07286e-006 13.134 -3.2573 -7.51122 -1.57638 2.31002 3.0105e-005 20.686 -1.69051 -2.91758 -17.8982 52.3623 2.224e-006 7.23802 -0.123693 -2.0488 28.3532 16.3281 1.7069 20.075 5.0056 8.94468 0.210287 -3.35805 13.6458 -0.0470138 -4.849 -87.7837 6.75457 -9.20759 28.3255 -0.975901 2.2888 -7.41041 1.14059 -28.7787 22.1583 -0.529986 10.8316 167.16 -65.4947 -149.448 0.786004 0.111998 2.5817 12.3621 23.5972 -19.0654 0.360099 -0.877998 4.2331 -5.9647 -0.146 -10.8936 1.8127 -1.21601 2.2227 0.823536 0.110035 1.51176 0.9571 1.114 1.7695 -1.59028e-015 0 7.95139e-016 4.12461 0.486993 4.1451 -6.13409 3.80173 9.14611 3.4052 -1.45401 2.7682 -24.8681 8.21225 11.7581 1.4531 -1.79499 1.2713 -35.5432 9.94491 17.4531 5.6954 0.209988 2.1184 -8.92058 3.19791 4.44756 3.9766 -1.53999 2.3863 -33.0167 10.9555 16.5913 1.4042 -1.926 1.125 -11.7601 5.14266 5.33194 2.0956 0.66 -0.3894 -1.59028e-015 0 7.95139e-016 5.0395 -0.0900121 2.4971 -13.4647 2.24798 4.33938 3.7921 -1.55199 1.4806 -14.1585 6.44195 7.3536 1.4655 -1.808 0.960901 -15.3895 6.89582 8.04319 4.9141 -1.269 0.359101 -2.84727 -2.86744 3.90805 3.1477 -1.685 0.846202 -18.9106 8.765 10.0085 0.805498 -1.58501 0.7955 -16.4991 7.87752 8.62468 -1.7069 20.075 5.0056 -34.1317 -0.674876 24.2382 -13.6458 -0.0470128 -4.849 6.44061 -52.1695 20.1831 -28.3255 -0.975885 2.2888 21.5035 -43.5055 37.7329 -22.1583 -0.530008 10.8316 14.4203 -74.1486 -16.794 -0.785998 0.112004 2.5817 -26.3296 41.7919 28.7847 -0.360101 -0.877996 4.2331 1.39263 -1.12153 4.1208 -1.81269 -1.216 2.2227 -3.67225 3.94306 -12.274 -0.9571 1.114 1.7695 -2.20695e-032 -3.97569e-016 -3.18055e-015 -4.12461 0.487013 4.1451 -4.73542 5.2151 -12.7622 -3.4052 -1.45401 2.7682 42.0263 10.4825 -10.0616 -1.4531 -1.795 1.2713 42.2806 10.5197 -10.142 -5.69541 0.21 2.11841 3.05194 3.24549 -5.93017 -3.9766 -1.54 2.3863 52.3089 13.5299 -14.1045 -1.4042 -1.926 1.125 28.7601 9.2248 -6.33016 -2.0956 0.66 -0.3894 -2.20695e-032 -3.97569e-016 -3.18055e-015 -5.03951 -0.089986 2.4971 15.4433 -0.0444389 -5.47382 -3.7921 -1.55201 1.48061 28.7215 9.90553 -7.70277 -1.4655 -1.808 0.960906 30.1778 10.2799 -8.20417 -4.91411 -1.26899 0.359206 8.52416 -4.24539 -3.39558 -3.1477 -1.68501 0.846199 27.7736 10.5222 -7.24027 -0.805501 -1.58499 0.795506 22.2836 8.79327 -5.44732 8.367 -8.2066 0.598199 40.2339 -6.09246 12.643 2.19229 -43.463 -0.493193 -3.12441 86.1584 5.47723 0.7333 -45.8593 -2.64509 -8.44128 18.1935 -4.00945 -8.36701 -8.20661 0.5982 -22.2616 1.80404 -32.5015 -2.19233 -43.463 -0.493121 128.007 69.4103 -122.802 -0.733299 -45.8593 -2.64507 11.0275 9.28442 -5.74301 
